# xmcd
# 
# Track frame offsets:
#     150
#     18555
#     35077
#     51513
#     72963
#     95311
#     114224
#     130137
#     145466
#     159274
#     170173
# 
# Disc length: 2516
# 
# Revision: 2
# Processed by: cddbd v1.5.2PL0 Copyright (c) Steve Scherf et al.
# Submitted via: fre:ac v1.0.31
# 
DISCID=9a09d20b
DTITLE=Devon Allman - Turquoise
DYEAR=2013
DGENRE=Rock/Pop
TTITLE0=When I Left Home
TTITLE1=Don't Set Me Free
TTITLE2=Time Machine
TTITLE3=Stop Draggin' My Heart Around
TTITLE4=There's No Time
TTITLE5=Strategy
TTITLE6=Homesick
TTITLE7=Into the Darkness
TTITLE8=Key Lime Pie
TTITLE9=Yadira's Lullaby
TTITLE10=Turn Off the World
EXTD=
EXTT0=
EXTT1=
EXTT2=
EXTT3=
EXTT4=
EXTT5=
EXTT6=
EXTT7=
EXTT8=
EXTT9=
EXTT10=
PLAYORDER=
